<svg xmlns="http://www.w3.org/2000/svg" viewBox="0 0 20 20" shape-rendering="crispEdges"><rect x="2" y="2" width="2" height="1" fill="#33241d"/><rect x="16" y="2" width="2" height="1" fill="#33241d"/><rect x="2" y="3" width="1" height="1" fill="#33241d"/><rect x="3" y="3" width="1" height="1" fill="#eec27f"/><rect x="4" y="3" width="1" height="1" fill="#33241d"/><rect x="8" y="3" width="1" height="1" fill="#e8b54a"/><rect x="9" y="3" width="1" height="1" fill="#f8d98a"/><rect x="10" y="3" width="1" height="1" fill="#e8b54a"/><rect x="15" y="3" width="1" height="1" fill="#33241d"/><rect x="16" y="3" width="1" height="1" fill="#eec27f"/><rect x="17" y="3" width="1" height="1" fill="#33241d"/><rect x="2" y="4" width="1" height="1" fill="#33241d"/><rect x="3" y="4" width="1" height="1" fill="#eec27f"/><rect x="4" y="4" width="1" height="1" fill="#f2a8a0"/><rect x="5" y="4" width="1" height="1" fill="#33241d"/><rect x="8" y="4" width="5" height="1" fill="#e8b54a"/><rect x="14" y="4" width="1" height="1" fill="#33241d"/><rect x="15" y="4" width="1" height="1" fill="#f2a8a0"/><rect x="16" y="4" width="1" height="1" fill="#eec27f"/><rect x="17" y="4" width="1" height="1" fill="#33241d"/><rect x="5" y="5" width="10" height="1" fill="#33241d"/><rect x="3" y="6" width="2" height="1" fill="#33241d"/><rect x="5" y="6" width="6" height="1" fill="#f8dfae"/><rect x="11" y="6" width="4" height="1" fill="#eec27f"/><rect x="15" y="6" width="2" height="1" fill="#33241d"/><rect x="2" y="7" width="1" height="1" fill="#33241d"/><rect x="3" y="7" width="6" height="1" fill="#f8dfae"/><rect x="9" y="7" width="6" height="1" fill="#eec27f"/><rect x="15" y="7" width="2" height="1" fill="#d0a057"/><rect x="17" y="7" width="1" height="1" fill="#33241d"/><rect x="1" y="8" width="1" height="1" fill="#33241d"/><rect x="2" y="8" width="5" height="1" fill="#f8dfae"/><rect x="7" y="8" width="8" height="1" fill="#eec27f"/><rect x="15" y="8" width="3" height="1" fill="#d0a057"/><rect x="18" y="8" width="1" height="1" fill="#33241d"/><rect x="0" y="9" width="1" height="1" fill="#33241d"/><rect x="1" y="9" width="4" height="1" fill="#f8dfae"/><rect x="5" y="9" width="10" height="1" fill="#eec27f"/><rect x="15" y="9" width="4" height="1" fill="#d0a057"/><rect x="19" y="9" width="1" height="1" fill="#33241d"/><rect x="0" y="10" width="1" height="1" fill="#33241d"/><rect x="1" y="10" width="4" height="1" fill="#f8dfae"/><rect x="5" y="10" width="1" height="1" fill="#ffffff"/><rect x="6" y="10" width="1" height="1" fill="#241812"/><rect x="7" y="10" width="6" height="1" fill="#eec27f"/><rect x="13" y="10" width="1" height="1" fill="#ffffff"/><rect x="14" y="10" width="1" height="1" fill="#241812"/><rect x="15" y="10" width="2" height="1" fill="#eec27f"/><rect x="17" y="10" width="2" height="1" fill="#d0a057"/><rect x="19" y="10" width="1" height="1" fill="#33241d"/><rect x="0" y="11" width="1" height="1" fill="#33241d"/><rect x="1" y="11" width="4" height="1" fill="#f8dfae"/><rect x="5" y="11" width="2" height="1" fill="#241812"/><rect x="7" y="11" width="6" height="1" fill="#eec27f"/><rect x="13" y="11" width="2" height="1" fill="#241812"/><rect x="15" y="11" width="2" height="1" fill="#eec27f"/><rect x="17" y="11" width="2" height="1" fill="#d0a057"/><rect x="19" y="11" width="1" height="1" fill="#33241d"/><rect x="0" y="12" width="1" height="1" fill="#33241d"/><rect x="1" y="12" width="1" height="1" fill="#f8dfae"/><rect x="2" y="12" width="1" height="1" fill="#eec27f"/><rect x="3" y="12" width="2" height="1" fill="#f2a8a0"/><rect x="5" y="12" width="4" height="1" fill="#ece2d2"/><rect x="9" y="12" width="2" height="1" fill="#e0879e"/><rect x="11" y="12" width="4" height="1" fill="#ece2d2"/><rect x="15" y="12" width="2" height="1" fill="#f2a8a0"/><rect x="17" y="12" width="2" height="1" fill="#d0a057"/><rect x="19" y="12" width="1" height="1" fill="#33241d"/><rect x="0" y="13" width="1" height="1" fill="#33241d"/><rect x="1" y="13" width="1" height="1" fill="#f8dfae"/><rect x="2" y="13" width="2" height="1" fill="#eec27f"/><rect x="4" y="13" width="5" height="1" fill="#ece2d2"/><rect x="9" y="13" width="2" height="1" fill="#33241d"/><rect x="11" y="13" width="5" height="1" fill="#ece2d2"/><rect x="16" y="13" width="1" height="1" fill="#eec27f"/><rect x="17" y="13" width="2" height="1" fill="#d0a057"/><rect x="19" y="13" width="1" height="1" fill="#33241d"/><rect x="1" y="14" width="1" height="1" fill="#33241d"/><rect x="2" y="14" width="1" height="1" fill="#f8dfae"/><rect x="3" y="14" width="2" height="1" fill="#eec27f"/><rect x="5" y="14" width="8" height="1" fill="#ece2d2"/><rect x="13" y="14" width="2" height="1" fill="#eec27f"/><rect x="15" y="14" width="3" height="1" fill="#d0a057"/><rect x="18" y="14" width="1" height="1" fill="#33241d"/><rect x="2" y="15" width="1" height="1" fill="#33241d"/><rect x="3" y="15" width="12" height="1" fill="#eec27f"/><rect x="15" y="15" width="2" height="1" fill="#d0a057"/><rect x="17" y="15" width="1" height="1" fill="#33241d"/><rect x="3" y="16" width="14" height="1" fill="#33241d"/></svg>
