<svg xmlns="http://www.w3.org/2000/svg" viewBox="0 0 24 24" shape-rendering="crispEdges"><rect x="7" y="3" width="2" height="1" fill="#e8b54a"/><rect x="11" y="3" width="2" height="1" fill="#e8b54a"/><rect x="15" y="3" width="2" height="1" fill="#e8b54a"/><rect x="7" y="4" width="1" height="1" fill="#e8b54a"/><rect x="8" y="4" width="1" height="1" fill="#f8d98a"/><rect x="9" y="4" width="2" height="1" fill="#e8b54a"/><rect x="11" y="4" width="1" height="1" fill="#f8d98a"/><rect x="12" y="4" width="3" height="1" fill="#e8b54a"/><rect x="15" y="4" width="1" height="1" fill="#f8d98a"/><rect x="16" y="4" width="1" height="1" fill="#e8b54a"/><rect x="7" y="5" width="1" height="1" fill="#e8b54a"/><rect x="8" y="5" width="1" height="1" fill="#d8555c"/><rect x="9" y="5" width="2" height="1" fill="#e8b54a"/><rect x="11" y="5" width="1" height="1" fill="#d8555c"/><rect x="12" y="5" width="2" height="1" fill="#e8b54a"/><rect x="14" y="5" width="1" height="1" fill="#d8555c"/><rect x="15" y="5" width="2" height="1" fill="#e8b54a"/><rect x="7" y="6" width="10" height="1" fill="#b5822e"/><rect x="6" y="7" width="2" height="1" fill="#b5542a"/><rect x="8" y="7" width="8" height="1" fill="#d97840"/><rect x="16" y="7" width="2" height="1" fill="#b5542a"/><rect x="4" y="8" width="3" height="1" fill="#b5542a"/><rect x="7" y="8" width="10" height="1" fill="#33241d"/><rect x="17" y="8" width="3" height="1" fill="#b5542a"/><rect x="3" y="9" width="2" height="1" fill="#b5542a"/><rect x="5" y="9" width="2" height="1" fill="#33241d"/><rect x="7" y="9" width="6" height="1" fill="#f7c47f"/><rect x="13" y="9" width="4" height="1" fill="#eda14e"/><rect x="17" y="9" width="2" height="1" fill="#33241d"/><rect x="19" y="9" width="2" height="1" fill="#b5542a"/><rect x="2" y="10" width="2" height="1" fill="#b5542a"/><rect x="4" y="10" width="1" height="1" fill="#33241d"/><rect x="5" y="10" width="6" height="1" fill="#f7c47f"/><rect x="11" y="10" width="6" height="1" fill="#eda14e"/><rect x="17" y="10" width="2" height="1" fill="#c97f33"/><rect x="19" y="10" width="1" height="1" fill="#33241d"/><rect x="20" y="10" width="2" height="1" fill="#b5542a"/><rect x="1" y="11" width="2" height="1" fill="#b5542a"/><rect x="3" y="11" width="1" height="1" fill="#33241d"/><rect x="4" y="11" width="5" height="1" fill="#f7c47f"/><rect x="9" y="11" width="8" height="1" fill="#eda14e"/><rect x="17" y="11" width="3" height="1" fill="#c97f33"/><rect x="20" y="11" width="1" height="1" fill="#33241d"/><rect x="21" y="11" width="2" height="1" fill="#b5542a"/><rect x="0" y="12" width="2" height="1" fill="#b5542a"/><rect x="2" y="12" width="1" height="1" fill="#33241d"/><rect x="3" y="12" width="4" height="1" fill="#f7c47f"/><rect x="7" y="12" width="10" height="1" fill="#eda14e"/><rect x="17" y="12" width="4" height="1" fill="#c97f33"/><rect x="21" y="12" width="1" height="1" fill="#33241d"/><rect x="22" y="12" width="2" height="1" fill="#b5542a"/><rect x="0" y="13" width="2" height="1" fill="#b5542a"/><rect x="2" y="13" width="1" height="1" fill="#33241d"/><rect x="3" y="13" width="4" height="1" fill="#f7c47f"/><rect x="7" y="13" width="1" height="1" fill="#ffffff"/><rect x="8" y="13" width="1" height="1" fill="#241812"/><rect x="9" y="13" width="6" height="1" fill="#eda14e"/><rect x="15" y="13" width="1" height="1" fill="#ffffff"/><rect x="16" y="13" width="1" height="1" fill="#241812"/><rect x="17" y="13" width="2" height="1" fill="#eda14e"/><rect x="19" y="13" width="2" height="1" fill="#c97f33"/><rect x="21" y="13" width="1" height="1" fill="#33241d"/><rect x="22" y="13" width="2" height="1" fill="#b5542a"/><rect x="0" y="14" width="2" height="1" fill="#b5542a"/><rect x="2" y="14" width="1" height="1" fill="#33241d"/><rect x="3" y="14" width="4" height="1" fill="#f7c47f"/><rect x="7" y="14" width="2" height="1" fill="#241812"/><rect x="9" y="14" width="6" height="1" fill="#eda14e"/><rect x="15" y="14" width="2" height="1" fill="#241812"/><rect x="17" y="14" width="2" height="1" fill="#eda14e"/><rect x="19" y="14" width="2" height="1" fill="#c97f33"/><rect x="21" y="14" width="1" height="1" fill="#33241d"/><rect x="22" y="14" width="2" height="1" fill="#b5542a"/><rect x="0" y="15" width="2" height="1" fill="#b5542a"/><rect x="2" y="15" width="1" height="1" fill="#33241d"/><rect x="3" y="15" width="1" height="1" fill="#f7c47f"/><rect x="4" y="15" width="1" height="1" fill="#eda14e"/><rect x="5" y="15" width="2" height="1" fill="#f2a8a0"/><rect x="7" y="15" width="4" height="1" fill="#ece2d2"/><rect x="11" y="15" width="2" height="1" fill="#8a4a34"/><rect x="13" y="15" width="4" height="1" fill="#ece2d2"/><rect x="17" y="15" width="2" height="1" fill="#f2a8a0"/><rect x="19" y="15" width="2" height="1" fill="#c97f33"/><rect x="21" y="15" width="1" height="1" fill="#33241d"/><rect x="22" y="15" width="2" height="1" fill="#b5542a"/><rect x="0" y="16" width="2" height="1" fill="#b5542a"/><rect x="2" y="16" width="1" height="1" fill="#33241d"/><rect x="3" y="16" width="1" height="1" fill="#f7c47f"/><rect x="4" y="16" width="2" height="1" fill="#eda14e"/><rect x="6" y="16" width="5" height="1" fill="#ece2d2"/><rect x="11" y="16" width="2" height="1" fill="#33241d"/><rect x="13" y="16" width="5" height="1" fill="#ece2d2"/><rect x="18" y="16" width="1" height="1" fill="#eda14e"/><rect x="19" y="16" width="2" height="1" fill="#c97f33"/><rect x="21" y="16" width="1" height="1" fill="#33241d"/><rect x="22" y="16" width="2" height="1" fill="#b5542a"/><rect x="1" y="17" width="2" height="1" fill="#b5542a"/><rect x="3" y="17" width="1" height="1" fill="#33241d"/><rect x="4" y="17" width="1" height="1" fill="#f7c47f"/><rect x="5" y="17" width="2" height="1" fill="#eda14e"/><rect x="7" y="17" width="8" height="1" fill="#ece2d2"/><rect x="15" y="17" width="2" height="1" fill="#eda14e"/><rect x="17" y="17" width="3" height="1" fill="#c97f33"/><rect x="20" y="17" width="1" height="1" fill="#33241d"/><rect x="21" y="17" width="2" height="1" fill="#b5542a"/><rect x="2" y="18" width="2" height="1" fill="#b5542a"/><rect x="4" y="18" width="1" height="1" fill="#33241d"/><rect x="5" y="18" width="12" height="1" fill="#eda14e"/><rect x="17" y="18" width="2" height="1" fill="#c97f33"/><rect x="19" y="18" width="1" height="1" fill="#33241d"/><rect x="20" y="18" width="2" height="1" fill="#b5542a"/><rect x="3" y="19" width="2" height="1" fill="#b5542a"/><rect x="5" y="19" width="14" height="1" fill="#33241d"/><rect x="19" y="19" width="2" height="1" fill="#b5542a"/><rect x="5" y="20" width="3" height="1" fill="#b5542a"/><rect x="8" y="20" width="8" height="1" fill="#d97840"/><rect x="16" y="20" width="3" height="1" fill="#b5542a"/></svg>
